<svg viewBox="0 0 24 24" xmlns="http://www.w3.org/2000/svg">
  <defs>
    <style>
      .ai-brain { fill: #4a90e2; stroke: #2c5aa0; stroke-width: 0.5; }
      .ai-text { fill: #f39c12; stroke: #d68910; stroke-width: 0.3; }
      .ai-connection { stroke: #27ae60; stroke-width: 1; fill: none; }
      .ai-spark { fill: #e74c3c; }
    </style>
  </defs>
  
  <!-- Brain/AI representation -->
  <path class="ai-brain" d="M12 3C8.5 3 6 5.5 6 9c0 1.5 0.5 2.8 1.3 3.8C6.5 13.5 6 14.7 6 16c0 2.2 1.8 4 4 4h4c2.2 0 4-1.8 4-4c0-1.3-0.5-2.5-1.3-3.2C17.5 11.8 18 10.5 18 9c0-3.5-2.5-6-6-6z"/>
  
  <!-- Neural network connections -->
  <circle class="ai-connection" cx="8" cy="8" r="1"/>
  <circle class="ai-connection" cx="12" cy="6" r="1"/>
  <circle class="ai-connection" cx="16" cy="8" r="1"/>
  <circle class="ai-connection" cx="10" cy="12" r="1"/>
  <circle class="ai-connection" cx="14" cy="12" r="1"/>
  
  <!-- Connection lines -->
  <line class="ai-connection" x1="8" y1="8" x2="12" y2="6"/>
  <line class="ai-connection" x1="12" y1="6" x2="16" y2="8"/>
  <line class="ai-connection" x1="8" y1="8" x2="10" y2="12"/>
  <line class="ai-connection" x1="16" y1="8" x2="14" y2="12"/>
  <line class="ai-connection" x1="10" y1="12" x2="14" y2="12"/>
  
  <!-- Text/typography elements -->
  <rect class="ai-text" x="3" y="16" width="18" height="2" rx="1"/>
  <rect class="ai-text" x="5" y="19" width="14" height="1.5" rx="0.75"/>
  
  <!-- AI sparkle effect -->
  <polygon class="ai-spark" points="20,4 20.5,5.5 22,6 20.5,6.5 20,8 19.5,6.5 18,6 19.5,5.5"/>
  <polygon class="ai-spark" points="4,14 4.3,14.7 5,15 4.3,15.3 4,16 3.7,15.3 3,15 3.7,14.7"/>
</svg>